<?xml version="1.0" encoding="utf-8"?>
<!-- Generator: Adobe Illustrator 19.0.0, SVG Export Plug-In . SVG Version: 6.00 Build 0)  -->
<svg version="1.1" xmlns="http://www.w3.org/2000/svg" xmlns:xlink="http://www.w3.org/1999/xlink" x="0px" y="0px"
	 viewBox="0 0 269 43.5" style="enable-background:new 0 0 269 43.5;" xml:space="preserve">
<style type="text/css">
	.st0{fill:#FFFFFF;}
</style>
<g id="Layer_1">
</g>
<g id="Layer_2">
	<g>
		<path class="st0" d="M91.4,22.4c0-4,0.1-8,0-12c-0.1-2.3,0.6-3.4,3.1-3.4c5.6,0.1,11.2,0.1,16.8,0c2.7-0.1,3,1.3,3,3.5
			c0,2.3-0.3,3.9-3.2,3.7c-3.4-0.2-6.7-0.2-10.1,0.1c-0.9,0.1-1.7,1.5-2.6,2.2c0.9,0.8,1.7,2.1,2.6,2.2c2.7,0.3,5.5,0.2,8.2,0.1
			c2.2-0.1,2.4,1.3,2.3,2.9c0,1.7,0,3.3-2.4,3.3c-2.7-0.1-5.5,0.1-8.2,0c-2,0-3,1-2.5,2.7c0.3,1.1,1.6,2.5,2.5,2.6
			c3.3,0.3,6.7,0.3,10.1,0.1c2.9-0.2,3.2,1.3,3.2,3.7c0,2.2-0.3,3.6-3,3.5c-5.7-0.2-11.5-0.1-17.2,0c-2.1,0-2.8-0.8-2.8-2.9
			C91.5,30.6,91.4,26.5,91.4,22.4z"/>
		<path class="st0" d="M84.4,22.5c0,4-0.1,8,0.1,12c0.1,2.6-1,3.3-3.3,3.2c-2-0.1-3.9,0.3-4-2.9c-0.3-9-0.4-8.9-9.5-9
			c-3,0-4.5,0.8-4.1,4c0.2,1.2-0.1,2.5,0.1,3.7c0.6,3.8-1.4,4.7-4.5,4.1c-0.9-0.2-2.4-1.5-2.4-2.3c-0.2-8.5-0.1-17-0.1-25.5
			c0-2.6,1.5-2.8,3.4-2.7c1.8,0.1,3.7-0.2,3.5,2.5c0,0.6-0.1,1.3,0,1.9c0.3,2.4,0.2,6.7,1,6.8c3.7,0.7,7.7,0.4,11.5,0.3
			c0.4,0,0.9-1.4,1-2.1c0.2-1.7,0.3-3.5,0-5.2c-0.5-3.8,1.5-4.7,4.6-4.1c1,0.2,2.4,1.7,2.5,2.6C84.5,14,84.4,18.2,84.4,22.5z"/>
		<path class="st0" d="M161.4,19.6c2.6-3,5.6-5.7,7.8-9c2.9-4.3,6.7-3.8,11.7-3.1c-2.9,3.4-5.3,6.4-7.8,9.2
			c-1.8,1.9-1.8,3.5-0.3,5.6c3.5,4.8,6.8,9.7,10.2,14.7c-7.3,1.7-8.4,1.3-11.9-4.2c-1.6-2.5-3.2-4.9-4.9-7.5
			c-4.8,2.9-6.6,6.8-5.7,12.3c-2,0-3.5,0.3-4.9-0.1c-0.9-0.2-2.1-1.4-2.1-2.2c-0.2-8.6-0.1-17.2-0.1-25.8c0-2.8,1.8-2.4,3.6-2.5
			c1.8,0,3.5-0.1,3.4,2.6c-0.1,3.2,0,6.4,0,9.6C160.7,19.3,161,19.4,161.4,19.6z"/>
		<path class="st0" d="M219.1,37.6c0-9.9-0.1-19.1,0.1-28.3c0-0.8,1.6-2.1,2.5-2.2c4-0.2,8-0.3,12,0c6.4,0.4,10.5,4.9,10.6,11.3
			c0.1,6.5-4,11.3-10.4,12c-1,0.1-2,0.2-3,0.1c-3.4-0.5-5.3,0.6-4.7,4.4c0.3,1.8-0.5,2.8-2.5,2.7C222.4,37.5,221.1,37.6,219.1,37.6z
			 M230.4,14.2c-2.4-0.4-4.6,0-4.2,3.9c0.3,2.7-0.8,5.8,4.1,5.4c4.9-0.4,6.8-1.4,6.9-4.8C237.2,15.6,235.4,14.2,230.4,14.2z"/>
		<path class="st0" d="M184.8,16.6c0-1.9,0.1-3.8,0-5.6c-0.2-2.7,0.5-4.1,3.7-4c3.1,0,3.4,1.5,3.4,4c-0.1,4.1-0.1,8.3,0.2,12.4
			c0.4,4.8,3,7.2,7,7.2c4.2,0,7-2.5,7.4-7.3c0.4-4.3,0.3-8.7,0.2-13.1c-0.1-3.1,1.7-3,3.9-3c2.3-0.1,3.5,0.6,3.4,3.1
			c-0.2,4.7,0.1,9.5-0.4,14.2c-0.8,8.1-6.9,13.4-14.6,13.2c-7.6-0.1-13.1-5.4-13.9-13.5c-0.2-2.5,0-5,0-7.5
			C184.9,16.6,184.8,16.6,184.8,16.6z"/>
		<path class="st0" d="M147.5,29.9c-3,5.9-10,8.8-17.2,7.2c-7.3-1.7-12.1-7.4-12.2-14.6c-0.1-7.1,4.5-12.8,11.6-14.7
			c7.5-2,14.7,0.7,18.2,7c-2.6,2-4.6,4-8.2,0.8c-3.4-3-10-1.7-12.7,1.5c-2.6,3.2-2.4,7.4,0.5,10.6c3,3.3,8.6,3.8,12.4,1.2
			C143.4,26.5,143.7,26.5,147.5,29.9z"/>
		<path class="st0" d="M50.8,29.6c-2.5,5.6-9.5,8.9-16.1,7.7c-7.8-1.4-13-6.8-13.5-14c-0.5-7.2,4-13.4,11.1-15.5
			c7.5-2.2,14.9,0.4,18.6,6.8c-2.5,2.2-4.5,3.8-8.1,1c-4.6-3.6-12.1-1.3-14.1,3.6c-1.2,3.2-0.2,6.8,2.5,9.1
			c3.1,2.5,8.5,3.1,11.5,0.4C46.2,25.8,48.3,27.7,50.8,29.6z"/>
	</g>
</g>
</svg>
